# FreeCAD v0.19 build24276 (Git) Arch module
# http://www.freecadweb.org
mtllib robot_baldır.mtl
o Body
usemtl color_cccccc
v 0.0 20.0 0.0
v -6.840403 18.793852 0.0
v 0.0 20.0 14.0
v -6.840403 18.793852 14.0
v -12.855752 15.320889 0.0
v -12.855752 15.320889 14.0
v -17.320509 10.0 0.0
v -17.320509 10.0 14.0
v -19.696156 3.472964 14.0
v -19.696156 3.472964 0.0
v -19.696156 -3.472964 0.0
v -19.696156 -3.472964 14.0
v -17.320509 -10.0 0.0
v -17.320509 -10.0 14.0
v -12.855752 -15.320889 14.0
v -12.855752 -15.320889 0.0
v -6.840403 -18.793852 0.0
v -6.840403 -18.793852 14.0
v -0.0 -20.0 0.0
v -0.0 -20.0 14.0
v 130.141586 -15.0 14.0
v 130.141586 -15.0 0.0
v 135.271881 -14.095389 0.0
v 135.271881 -14.095389 14.0
v 139.783401 -11.490666 0.0
v 139.783401 -11.490666 14.0
v 143.131973 -7.5 14.0
v 143.131973 -7.5 0.0
v 144.913696 -2.604723 0.0
v 144.913696 -2.604723 14.0
v 144.913696 2.604723 14.0
v 144.913696 2.604723 0.0
v 143.131973 7.5 14.0
v 143.131973 7.5 0.0
v 139.783401 11.490666 0.0
v 139.783401 11.490666 14.0
v 135.271881 14.095389 0.0
v 135.271881 14.095389 14.0
v 130.141586 15.0 0.0
v 130.141586 15.0 14.0
v 134.840042 1.710101 0.0
v 135.141586 0.0 0.0
v 135.141586 0.0 14.0
v 134.840042 1.710101 14.0
v 133.971802 3.213938 14.0
v 133.971802 3.213938 0.0
v 132.641586 4.330127 0.0
v 132.641586 4.330127 14.0
v 131.009827 4.924039 14.0
v 131.009827 4.924039 0.0
v 129.273346 4.924039 14.0
v 129.273346 4.924039 0.0
v 127.641586 4.330127 0.0
v 127.641586 4.330127 14.0
v 126.311363 3.213938 14.0
v 126.311363 3.213938 0.0
v 125.443123 1.710101 0.0
v 125.443123 1.710101 14.0
v 125.141586 0.0 0.0
v 125.141586 0.0 14.0
v 125.443123 -1.710101 14.0
v 125.443123 -1.710101 0.0
v 126.311363 -3.213938 0.0
v 126.311363 -3.213938 14.0
v 127.641586 -4.330127 0.0
v 127.641586 -4.330127 14.0
v 129.273346 -4.924039 14.0
v 129.273346 -4.924039 0.0
v 131.009827 -4.924039 14.0
v 131.009827 -4.924039 0.0
v 132.641586 -4.330127 0.0
v 132.641586 -4.330127 14.0
v 133.971802 -3.213938 0.0
v 133.971802 -3.213938 14.0
v 134.840042 -1.710101 14.0
v 134.840042 -1.710101 0.0
v 4.698463 1.710101 0.0
v 5.0 0.0 0.0
v 5.0 0.0 14.0
v 4.698463 1.710101 14.0
v 3.830222 3.213938 14.0
v 3.830222 3.213938 0.0
v 2.5 4.330127 0.0
v 2.5 4.330127 14.0
v 0.868241 4.924039 14.0
v 0.868241 4.924039 0.0
v -0.868241 4.924039 14.0
v -0.868241 4.924039 0.0
v -2.5 4.330127 0.0
v -2.5 4.330127 14.0
v -3.830222 3.213938 14.0
v -3.830222 3.213938 0.0
v -4.698463 1.710101 0.0
v -4.698463 1.710101 14.0
v -5.0 0.0 0.0
v -5.0 0.0 14.0
v -4.698463 -1.710101 14.0
v -4.698463 -1.710101 0.0
v -3.830222 -3.213938 0.0
v -3.830222 -3.213938 14.0
v -2.5 -4.330127 0.0
v -2.5 -4.330127 14.0
v -0.868241 -4.924039 14.0
v -0.868241 -4.924039 0.0
v 0.868241 -4.924039 14.0
v 0.868241 -4.924039 0.0
v 2.5 -4.330127 0.0
v 2.5 -4.330127 14.0
v 3.830222 -3.213938 0.0
v 3.830222 -3.213938 14.0
v 4.698463 -1.710101 14.0
v 4.698463 -1.710101 0.0
vn -0.17364825308322906 0.9848077297210693 0.0
vn -0.17364825308322906 0.9848077297210693 0.0
vn -0.5 0.8660253882408142 0.0
vn -0.5 0.8660253882408142 0.0
vn -0.7660443186759949 0.642787754535675 0.0
vn -0.9396926164627075 0.34202009439468384 0.0
vn -0.7660443186759949 0.642787754535675 0.0
vn -0.9396926164627075 0.34202009439468384 0.0
vn -1.0 -0.0 0.0
vn -1.0 0.0 0.0
vn -0.9396926164627075 -0.34202009439468384 0.0
vn -0.7660443186759949 -0.642787754535675 -0.0
vn -0.9396926164627075 -0.34202009439468384 0.0
vn -0.7660443186759949 -0.642787754535675 0.0
vn -0.5 -0.8660253882408142 0.0
vn -0.5 -0.8660253882408142 0.0
vn -0.17364825308322906 -0.9848077297210693 0.0
vn -0.17364825308322906 -0.9848077297210693 0.0
vn 0.038391370326280594 -0.9992627501487732 0.0
vn 0.038391370326280594 -0.9992627501487732 0.0
vn 0.1736484169960022 -0.9848077893257141 0.0
vn 0.1736484169960022 -0.9848077893257141 0.0
vn 0.49999937415122986 -0.8660258054733276 0.0
vn 0.7660439014434814 -0.6427881121635437 0.0
vn 0.49999937415122986 -0.8660258054733276 0.0
vn 0.7660439014434814 -0.6427881121635437 0.0
vn 0.9396932721138 -0.3420180678367615 0.0
vn 1.0 -0.0 0.0
vn 0.9396932721138 -0.3420180678367615 0.0
vn 0.9396932721138 0.3420180678367615 0.0
vn 1.0 0.0 0.0
vn 0.9396932721138 0.3420180678367615 0.0
vn 0.7660439014434814 0.6427881121635437 0.0
vn 0.7660439014434814 0.6427881121635437 -0.0
vn 0.49999937415122986 0.8660258054733276 0.0
vn 0.49999937415122986 0.8660258054733276 -0.0
vn 0.1736484169960022 0.9848077893257141 0.0
vn 0.1736484169960022 0.9848077893257141 -0.0
vn 0.038391370326280594 0.9992627501487732 0.0
vn 0.038391370326280594 0.9992627501487732 -0.0
vn -0.984807014465332 -0.17365224659442902 0.0
vn -0.984807014465332 -0.17365224659442902 0.0
vn -0.8660255074501038 -0.4999997913837433 0.0
vn -0.8660255074501038 -0.4999997913837433 0.0
vn -0.6427896618843079 -0.7660427689552307 0.0
vn -0.3420200049877167 -0.9396926760673523 0.0
vn -0.6427896618843079 -0.7660427689552307 0.0
vn 0.0 -1.0 0.0
vn -0.3420200049877167 -0.9396926760673523 0.0
vn 0.0 -1.0 0.0
vn 0.3420200049877167 -0.9396926760673523 0.0
vn 0.6427874565124512 -0.766044557094574 0.0
vn 0.3420200049877167 -0.9396926760673523 0.0
vn 0.6427874565124512 -0.766044557094574 0.0
vn 0.8660255074501038 -0.4999997913837433 0.0
vn 0.8660255074501038 -0.4999997913837433 0.0
vn 0.9848077893257141 -0.17364799976348877 0.0
vn 0.9848077893257141 0.17364799976348877 -0.0
vn 0.9848077893257141 -0.17364799976348877 0.0
vn 0.9848077893257141 0.17364799976348877 -0.0
vn 0.8660255074501038 0.4999997913837433 -0.0
vn 0.8660255074501038 0.4999997913837433 0.0
vn 0.6427874565124512 0.766044557094574 -0.0
vn 0.3420200049877167 0.9396926760673523 -0.0
vn 0.6427874565124512 0.766044557094574 0.0
vn 0.0 1.0 0.0
vn 0.3420200049877167 0.9396926760673523 -0.0
vn 0.0 1.0 -0.0
vn -0.3420200049877167 0.9396926760673523 0.0
vn -0.3420200049877167 0.9396926760673523 0.0
vn -0.6427896618843079 0.7660427689552307 0.0
vn -0.6427896618843079 0.7660427689552307 0.0
vn -0.8660255074501038 0.4999997913837433 0.0
vn -0.8660255074501038 0.4999997913837433 0.0
vn -0.984807014465332 0.17365224659442902 0.0
vn -0.984807014465332 0.17365224659442902 0.0
vn -0.9848077297210693 -0.17364825308322906 0.0
vn -0.9848077297210693 -0.17364825308322906 0.0
vn -0.8660253882408142 -0.5 0.0
vn -0.8660253882408142 -0.5 0.0
vn -0.642787754535675 -0.7660443186759949 0.0
vn -0.34202009439468384 -0.9396926164627075 0.0
vn -0.642787754535675 -0.7660443186759949 0.0
vn 0.0 -1.0 0.0
vn -0.34202009439468384 -0.9396926164627075 0.0
vn 0.0 -1.0 0.0
vn 0.34202009439468384 -0.9396926164627075 0.0
vn 0.642787754535675 -0.7660443186759949 0.0
vn 0.34202009439468384 -0.9396926164627075 0.0
vn 0.642787754535675 -0.7660443186759949 0.0
vn 0.8660253882408142 -0.5 0.0
vn 0.8660253882408142 -0.5 0.0
vn 0.9848077297210693 -0.17364825308322906 0.0
vn 0.9848077297210693 0.17364825308322906 -0.0
vn 0.9848077297210693 -0.17364825308322906 0.0
vn 0.9848077297210693 0.17364825308322906 -0.0
vn 0.8660253882408142 0.5 -0.0
vn 0.8660253882408142 0.5 0.0
vn 0.642787754535675 0.7660443186759949 -0.0
vn 0.34202009439468384 0.9396926164627075 -0.0
vn 0.642787754535675 0.7660443186759949 0.0
vn 0.0 1.0 0.0
vn 0.34202009439468384 0.9396926164627075 -0.0
vn 0.0 1.0 -0.0
vn -0.34202009439468384 0.9396926164627075 0.0
vn -0.34202009439468384 0.9396926164627075 0.0
vn -0.642787754535675 0.7660443186759949 0.0
vn -0.642787754535675 0.7660443186759949 0.0
vn -0.8660253882408142 0.5 0.0
vn -0.8660253882408142 0.5 0.0
vn -0.9848077297210693 0.17364825308322906 0.0
vn -0.9848077297210693 0.17364825308322906 0.0
vn 0.0 0.0 -1.0
vn 0.0 0.0 -1.0
vn 0.0 -0.0 -1.0
vn 0.0 0.0 -1.0
vn 0.0 0.0 -1.0
vn 0.0 0.0 -1.0
vn 0.0 -0.0 -1.0
vn 0.0 0.0 -1.0
vn 0.0 0.0 -1.0
vn 0.0 0.0 -1.0
vn 0.0 -0.0 -1.0
vn 0.0 0.0 -1.0
vn 0.0 -0.0 -1.0
vn 0.0 0.0 -1.0
vn 0.0 -0.0 -1.0
vn 0.0 0.0 -1.0
vn 0.0 0.0 -1.0
vn 0.0 -0.0 -1.0
vn 0.0 0.0 -1.0
vn 0.0 0.0 -1.0
vn 0.0 0.0 -1.0
vn 0.0 0.0 -1.0
vn 0.0 0.0 -1.0
vn 0.0 0.0 -1.0
vn 0.0 0.0 -1.0
vn 0.0 0.0 -1.0
vn 0.0 0.0 -1.0
vn 0.0 -0.0 -1.0
vn 0.0 0.0 -1.0
vn 0.0 0.0 -1.0
vn 0.0 0.0 -1.0
vn 0.0 0.0 -1.0
vn 0.0 -0.0 -1.0
vn 0.0 0.0 -1.0
vn 0.0 0.0 -1.0
vn 0.0 0.0 -1.0
vn 0.0 0.0 -1.0
vn 0.0 0.0 -1.0
vn 0.0 0.0 -1.0
vn 0.0 0.0 -1.0
vn 0.0 0.0 -1.0
vn 0.0 -0.0 -1.0
vn 0.0 -0.0 -1.0
vn 0.0 0.0 -1.0
vn 0.0 0.0 -1.0
vn 0.0 0.0 -1.0
vn 0.0 0.0 -1.0
vn 0.0 0.0 -1.0
vn 0.0 0.0 -1.0
vn 0.0 0.0 -1.0
vn 0.0 0.0 -1.0
vn 0.0 0.0 -1.0
vn 0.0 0.0 -1.0
vn 0.0 0.0 -1.0
vn 0.0 0.0 -1.0
vn 0.0 0.0 -1.0
vn 0.0 -0.0 -1.0
vn 0.0 0.0 -1.0
vn 0.0 0.0 1.0
vn 0.0 0.0 1.0
vn 0.0 0.0 1.0
vn 0.0 0.0 1.0
vn 0.0 0.0 1.0
vn 0.0 0.0 1.0
vn 0.0 0.0 1.0
vn 0.0 0.0 1.0
vn 0.0 0.0 1.0
vn 0.0 0.0 1.0
vn 0.0 0.0 1.0
vn 0.0 0.0 1.0
vn 0.0 0.0 1.0
vn 0.0 0.0 1.0
vn 0.0 0.0 1.0
vn 0.0 0.0 1.0
vn 0.0 0.0 1.0
vn 0.0 0.0 1.0
vn 0.0 0.0 1.0
vn 0.0 0.0 1.0
vn 0.0 0.0 1.0
vn 0.0 0.0 1.0
vn 0.0 0.0 1.0
vn 0.0 0.0 1.0
vn 0.0 0.0 1.0
vn 0.0 0.0 1.0
vn 0.0 0.0 1.0
vn 0.0 0.0 1.0
vn 0.0 0.0 1.0
vn 0.0 0.0 1.0
vn 0.0 0.0 1.0
vn 0.0 0.0 1.0
vn 0.0 0.0 1.0
vn 0.0 0.0 1.0
vn 0.0 0.0 1.0
vn 0.0 0.0 1.0
vn 0.0 0.0 1.0
vn 0.0 0.0 1.0
vn 0.0 0.0 1.0
vn 0.0 0.0 1.0
vn 0.0 0.0 1.0
vn 0.0 0.0 1.0
vn 0.0 0.0 1.0
vn 0.0 0.0 1.0
vn 0.0 0.0 1.0
vn 0.0 0.0 1.0
vn 0.0 0.0 1.0
vn 0.0 0.0 1.0
vn 0.0 0.0 1.0
vn 0.0 0.0 1.0
vn 0.0 0.0 1.0
vn 0.0 0.0 1.0
vn 0.0 0.0 1.0
vn 0.0 0.0 1.0
vn 0.0 0.0 1.0
vn 0.0 0.0 1.0
vn 0.0 0.0 1.0
vn 0.0 0.0 1.0
f 1//1 2//1 3//1 
f 3//2 2//2 4//2 
f 4//3 5//3 6//3 
f 2//4 5//4 4//4 
f 6//5 7//5 8//5 
f 8//6 7//6 9//6 
f 5//7 7//7 6//7 
f 7//8 10//8 9//8 
f 9//9 11//9 12//9 
f 10//10 11//10 9//10 
f 12//11 13//11 14//11 
f 14//12 13//12 15//12 
f 11//13 13//13 12//13 
f 13//14 16//14 15//14 
f 15//15 17//15 18//15 
f 16//16 17//16 15//16 
f 18//17 19//17 20//17 
f 17//18 19//18 18//18 
f 19//19 21//19 20//19 
f 19//20 22//20 21//20 
f 22//21 23//21 21//21 
f 21//22 23//22 24//22 
f 24//23 25//23 26//23 
f 26//24 25//24 27//24 
f 23//25 25//25 24//25 
f 25//26 28//26 27//26 
f 27//27 29//27 30//27 
f 30//28 29//28 31//28 
f 28//29 29//29 27//29 
f 31//30 32//30 33//30 
f 29//31 32//31 31//31 
f 32//32 34//32 33//32 
f 33//33 35//33 36//33 
f 34//34 35//34 33//34 
f 36//35 37//35 38//35 
f 35//36 37//36 36//36 
f 38//37 39//37 40//37 
f 37//38 39//38 38//38 
f 40//39 1//39 3//39 
f 39//40 1//40 40//40 
f 41//41 42//41 43//41 
f 41//42 43//42 44//42 
f 41//43 44//43 45//43 
f 46//44 41//44 45//44 
f 47//45 45//45 48//45 
f 47//46 48//46 49//46 
f 47//47 46//47 45//47 
f 50//48 49//48 51//48 
f 50//49 47//49 49//49 
f 52//50 50//50 51//50 
f 53//51 51//51 54//51 
f 53//52 54//52 55//52 
f 53//53 52//53 51//53 
f 56//54 53//54 55//54 
f 57//55 55//55 58//55 
f 57//56 56//56 55//56 
f 59//57 58//57 60//57 
f 59//58 60//58 61//58 
f 59//59 57//59 58//59 
f 62//60 59//60 61//60 
f 63//61 61//61 64//61 
f 63//62 62//62 61//62 
f 65//63 64//63 66//63 
f 65//64 66//64 67//64 
f 65//65 63//65 64//65 
f 68//66 67//66 69//66 
f 68//67 65//67 67//67 
f 70//68 68//68 69//68 
f 71//69 70//69 69//69 
f 71//70 69//70 72//70 
f 73//71 71//71 72//71 
f 73//72 72//72 74//72 
f 73//73 74//73 75//73 
f 76//74 73//74 75//74 
f 42//75 76//75 75//75 
f 42//76 75//76 43//76 
f 77//77 78//77 79//77 
f 77//78 79//78 80//78 
f 77//79 80//79 81//79 
f 82//80 77//80 81//80 
f 83//81 81//81 84//81 
f 83//82 84//82 85//82 
f 83//83 82//83 81//83 
f 86//84 85//84 87//84 
f 86//85 83//85 85//85 
f 88//86 86//86 87//86 
f 89//87 87//87 90//87 
f 89//88 90//88 91//88 
f 89//89 88//89 87//89 
f 92//90 89//90 91//90 
f 93//91 91//91 94//91 
f 93//92 92//92 91//92 
f 95//93 94//93 96//93 
f 95//94 96//94 97//94 
f 95//95 93//95 94//95 
f 98//96 95//96 97//96 
f 99//97 97//97 100//97 
f 99//98 98//98 97//98 
f 101//99 100//99 102//99 
f 101//100 102//100 103//100 
f 101//101 99//101 100//101 
f 104//102 103//102 105//102 
f 104//103 101//103 103//103 
f 106//104 104//104 105//104 
f 107//105 106//105 105//105 
f 107//106 105//106 108//106 
f 109//107 107//107 108//107 
f 109//108 108//108 110//108 
f 109//109 110//109 111//109 
f 112//110 109//110 111//110 
f 78//111 112//111 111//111 
f 78//112 111//112 79//112 
f 13//113 99//113 16//113 
f 16//114 101//114 17//114 
f 99//115 101//115 16//115 
f 11//116 98//116 13//116 
f 13//117 98//117 99//117 
f 17//118 104//118 19//118 
f 101//119 104//119 17//119 
f 10//120 95//120 11//120 
f 11//121 95//121 98//121 
f 104//122 106//122 19//122 
f 7//123 93//123 10//123 
f 10//124 93//124 95//124 
f 106//125 107//125 19//125 
f 7//126 92//126 93//126 
f 107//127 109//127 19//127 
f 92//128 5//128 89//128 
f 7//129 5//129 92//129 
f 109//130 112//130 19//130 
f 89//131 2//131 88//131 
f 5//132 2//132 89//132 
f 2//133 1//133 88//133 
f 82//134 1//134 77//134 
f 83//135 1//135 82//135 
f 86//136 1//136 83//136 
f 88//137 1//137 86//137 
f 63//138 65//138 22//138 
f 19//139 62//139 22//139 
f 112//140 62//140 19//140 
f 22//141 62//141 63//141 
f 65//142 68//142 22//142 
f 112//143 59//143 62//143 
f 77//144 59//144 78//144 
f 78//145 59//145 112//145 
f 22//146 70//146 23//146 
f 68//147 70//147 22//147 
f 1//148 57//148 77//148 
f 77//149 57//149 59//149 
f 23//150 71//150 25//150 
f 70//151 71//151 23//151 
f 71//152 73//152 25//152 
f 73//153 28//153 25//153 
f 76//154 28//154 73//154 
f 42//155 29//155 76//155 
f 76//156 29//156 28//156 
f 1//157 39//157 57//157 
f 52//158 39//158 50//158 
f 53//159 39//159 52//159 
f 56//160 39//160 53//160 
f 57//161 39//161 56//161 
f 41//162 32//162 42//162 
f 42//163 32//163 29//163 
f 50//164 37//164 47//164 
f 39//165 37//165 50//165 
f 46//166 34//166 41//166 
f 41//167 34//167 32//167 
f 47//168 35//168 46//168 
f 37//169 35//169 47//169 
f 46//170 35//170 34//170 
f 100//171 14//171 15//171 
f 102//172 15//172 18//172 
f 102//173 100//173 15//173 
f 97//174 12//174 14//174 
f 97//175 14//175 100//175 
f 103//176 18//176 20//176 
f 103//177 102//177 18//177 
f 96//178 9//178 12//178 
f 96//179 12//179 97//179 
f 105//180 103//180 20//180 
f 94//181 8//181 9//181 
f 94//182 9//182 96//182 
f 108//183 105//183 20//183 
f 91//184 8//184 94//184 
f 110//185 108//185 20//185 
f 6//186 91//186 90//186 
f 6//187 8//187 91//187 
f 111//188 110//188 20//188 
f 4//189 90//189 87//189 
f 4//190 6//190 90//190 
f 3//191 4//191 87//191 
f 3//192 81//192 80//192 
f 3//193 84//193 81//193 
f 3//194 85//194 84//194 
f 3//195 87//195 85//195 
f 66//196 64//196 21//196 
f 61//197 20//197 21//197 
f 61//198 111//198 20//198 
f 61//199 21//199 64//199 
f 67//200 66//200 21//200 
f 60//201 111//201 61//201 
f 60//202 80//202 79//202 
f 60//203 79//203 111//203 
f 69//204 21//204 24//204 
f 69//205 67//205 21//205 
f 58//206 3//206 80//206 
f 58//207 80//207 60//207 
f 72//208 24//208 26//208 
f 72//209 69//209 24//209 
f 74//210 72//210 26//210 
f 27//211 74//211 26//211 
f 27//212 75//212 74//212 
f 30//213 43//213 75//213 
f 30//214 75//214 27//214 
f 40//215 3//215 58//215 
f 40//216 51//216 49//216 
f 40//217 54//217 51//217 
f 40//218 55//218 54//218 
f 40//219 58//219 55//219 
f 31//220 44//220 43//220 
f 31//221 43//221 30//221 
f 38//222 49//222 48//222 
f 38//223 40//223 49//223 
f 33//224 45//224 44//224 
f 33//225 44//225 31//225 
f 36//226 48//226 45//226 
f 36//227 38//227 48//227 
f 36//228 45//228 33//228 
